<svg xmlns="http://www.w3.org/2000/svg" viewBox="0 0 430 84" width="430" height="84" role="img" aria-label="vllm-doctor">
  <path d="M21.112 60L12.488 60L2.128 31.104L9.632 31.104L13.496 43.368L16.744 54.008L17.136 54.008L20.384 43.368L24.248 31.104L31.472 31.104L21.112 60ZM37.632 60L37.632 54.344L46.816 54.344L46.816 24.216L37.632 24.216L37.632 18.560L53.984 18.560L53.984 54.344L63.224 54.344L63.224 60L37.632 60ZM71.232 60L71.232 54.344L80.416 54.344L80.416 24.216L71.232 24.216L71.232 18.560L87.584 18.560L87.584 54.344L96.824 54.344L96.824 60L71.232 60ZM108.808 60L102.872 60L102.872 31.104L108.808 31.104L108.808 35.080L109.144 35.080Q109.816 33.176 111.076 31.804Q112.336 30.432 114.632 30.432L114.632 30.432Q116.816 30.432 118.104 31.692Q119.392 32.952 119.784 35.248L119.784 35.248L120.064 35.248Q120.792 33.288 122.220 31.860Q123.648 30.432 126.280 30.432L126.280 30.432Q129.472 30.432 130.872 32.728Q132.272 35.024 132.272 39.504L132.272 39.504L132.272 60L126.392 60L126.392 40.344Q126.392 37.824 125.692 36.816Q124.992 35.808 123.592 35.808L123.592 35.808Q122.304 35.808 121.436 36.648Q120.568 37.488 120.568 39.224L120.568 39.224L120.568 60L114.632 60L114.632 40.344Q114.632 37.824 113.960 36.816Q113.288 35.808 111.888 35.808L111.888 35.808Q110.544 35.808 109.676 36.648Q108.808 37.488 108.808 39.224L108.808 39.224L108.808 60Z" fill="#15171a"/>
  <g transform="translate(143.36, 34.24) scale(1.2600)">
    <path d="M2,10 L18,10 L22,10 L26,4 L32,16 L38,7 L42,10 L58,10" fill="none" stroke="#0e6e6a" stroke-width="3.11" stroke-linecap="round" stroke-linejoin="round"/>
  </g>
  <path d="M250.488 60L250.488 54.904L250.096 54.904Q248.920 57.536 246.876 59.104Q244.832 60.672 241.472 60.672L241.472 60.672Q239.008 60.672 236.964 59.748Q234.920 58.824 233.464 56.948Q232.008 55.072 231.224 52.216Q230.440 49.360 230.440 45.552L230.440 45.552Q230.440 37.936 233.464 34.184Q236.488 30.432 241.472 30.432L241.472 30.432Q244.832 30.432 246.876 32Q248.920 33.568 250.096 36.200L250.096 36.200L250.488 36.200L250.488 18.560L257.656 18.560L257.656 60L250.488 60ZM244.496 54.960L244.496 54.960Q245.728 54.960 246.820 54.652Q247.912 54.344 248.724 53.756Q249.536 53.168 250.012 52.244Q250.488 51.320 250.488 50.088L250.488 50.088L250.488 41.016Q250.488 39.784 250.012 38.860Q249.536 37.936 248.724 37.348Q247.912 36.760 246.820 36.452Q245.728 36.144 244.496 36.144L244.496 36.144Q241.360 36.144 239.652 38.048Q237.944 39.952 237.944 43.256L237.944 43.256L237.944 47.848Q237.944 51.152 239.652 53.056Q241.360 54.960 244.496 54.960ZM278.320 60.672L278.320 60.672Q275.016 60.672 272.412 59.608Q269.808 58.544 267.988 56.584Q266.168 54.624 265.188 51.824Q264.208 49.024 264.208 45.552L264.208 45.552Q264.208 42.080 265.188 39.280Q266.168 36.480 267.988 34.520Q269.808 32.560 272.412 31.496Q275.016 30.432 278.320 30.432L278.320 30.432Q281.568 30.432 284.200 31.496Q286.832 32.560 288.652 34.520Q290.472 36.480 291.452 39.280Q292.432 42.080 292.432 45.552L292.432 45.552Q292.432 49.024 291.452 51.824Q290.472 54.624 288.652 56.584Q286.832 58.544 284.200 59.608Q281.568 60.672 278.320 60.672ZM278.320 55.184L278.320 55.184Q281.400 55.184 283.192 53.308Q284.984 51.432 284.984 47.792L284.984 47.792L284.984 43.312Q284.984 39.672 283.192 37.796Q281.400 35.920 278.320 35.920L278.320 35.920Q275.240 35.920 273.448 37.796Q271.656 39.672 271.656 43.312L271.656 43.312L271.656 47.792Q271.656 51.432 273.448 53.308Q275.240 55.184 278.320 55.184ZM313.040 60.672L313.040 60.672Q309.736 60.672 307.104 59.608Q304.472 58.544 302.652 56.584Q300.832 54.624 299.852 51.824Q298.872 49.024 298.872 45.552L298.872 45.552Q298.872 42.080 299.852 39.280Q300.832 36.480 302.652 34.520Q304.472 32.560 307.076 31.496Q309.680 30.432 312.984 30.432L312.984 30.432Q317.576 30.432 320.376 32.336Q323.176 34.240 324.632 37.376L324.632 37.376L319.088 40.400Q318.304 38.552 316.876 37.404Q315.448 36.256 312.984 36.256L312.984 36.256Q309.792 36.256 308.084 38.104Q306.376 39.952 306.376 43.144L306.376 43.144L306.376 47.960Q306.376 51.096 308.084 52.972Q309.792 54.848 313.096 54.848L313.096 54.848Q315.672 54.848 317.212 53.672Q318.752 52.496 319.704 50.536L319.704 50.536L325.080 53.728Q323.624 56.808 320.684 58.740Q317.744 60.672 313.040 60.672ZM358.344 60L347.480 60Q343.336 60 341.376 57.816Q339.416 55.632 339.416 52.160L339.416 52.160L339.416 36.760L331.016 36.760L331.016 31.104L336.728 31.104Q338.464 31.104 339.192 30.404Q339.920 29.704 339.920 27.912L339.920 27.912L339.920 20.912L346.584 20.912L346.584 31.104L358.344 31.104L358.344 36.760L346.584 36.760L346.584 54.344L358.344 54.344L358.344 60ZM379.120 60.672L379.120 60.672Q375.816 60.672 373.212 59.608Q370.608 58.544 368.788 56.584Q366.968 54.624 365.988 51.824Q365.008 49.024 365.008 45.552L365.008 45.552Q365.008 42.080 365.988 39.280Q366.968 36.480 368.788 34.520Q370.608 32.560 373.212 31.496Q375.816 30.432 379.120 30.432L379.120 30.432Q382.368 30.432 385.000 31.496Q387.632 32.560 389.452 34.520Q391.272 36.480 392.252 39.280Q393.232 42.080 393.232 45.552L393.232 45.552Q393.232 49.024 392.252 51.824Q391.272 54.624 389.452 56.584Q387.632 58.544 385.000 59.608Q382.368 60.672 379.120 60.672ZM379.120 55.184L379.120 55.184Q382.200 55.184 383.992 53.308Q385.784 51.432 385.784 47.792L385.784 47.792L385.784 43.312Q385.784 39.672 383.992 37.796Q382.200 35.920 379.120 35.920L379.120 35.920Q376.040 35.920 374.248 37.796Q372.456 39.672 372.456 43.312L372.456 43.312L372.456 47.792Q372.456 51.432 374.248 53.308Q376.040 55.184 379.120 55.184ZM400.120 60L400.120 54.344L407.288 54.344L407.288 36.760L400.120 36.760L400.120 31.104L414.456 31.104L414.456 39L414.904 39Q415.296 37.488 415.996 36.060Q416.696 34.632 417.788 33.540Q418.880 32.448 420.448 31.776Q422.016 31.104 424.200 31.104L424.200 31.104L427.336 31.104L427.336 37.824L421.400 37.824Q418.152 37.824 416.304 39.728Q414.456 41.632 414.456 44.600L414.456 44.600L414.456 54.344L424.480 54.344L424.480 60L400.120 60Z" fill="#15171a"/>
</svg>